<svg width="480pt" height="290pt" viewBox="0 0 480 290" version="1.1" xmlns="http://www.w3.org/2000/svg" xmlns:xlink="http://www.w3.org/1999/xlink" xmlns:xml="http://www.w3.org/XML/1998/namespace">
  <g id="surface2" transform="matrix(1,0,0,1,0,0)">
    <path style=" stroke:none;fill-rule:evenodd;fill:rgb(90.195880%,90.588036%,90.980192%);fill-opacity:1;" d="M 221.648438 145.000000 C 221.984375 144.367188 223.050781 143.867188 224.851562 143.500000 C 226.617188 143.132812 228.949219 142.898438 231.851562 142.800781 C 234.714844 142.699219 237.984375 142.734375 241.648438 142.898438 C 245.285156 143.066406 249.132812 143.367188 253.199219 143.800781 C 258.632812 144.367188 263.417969 145.050781 267.550781 145.851562 C 271.683594 146.617188 274.851562 147.417969 277.050781 148.250000 C 279.250000 149.117188 280.148438 149.917969 279.750000 150.648438 C 279.382812 151.183594 278.300781 151.632812 276.500000 152.000000 C 274.734375 152.367188 272.417969 152.617188 269.550781 152.750000 C 266.683594 152.882812 263.449219 152.917969 259.851562 152.851562 C 256.250000 152.750000 252.433594 152.535156 248.398438 152.199219 C 243.035156 151.699219 238.265625 151.050781 234.101562 150.250000 C 229.933594 149.449219 226.734375 148.582031 224.500000 147.648438 C 222.265625 146.714844 221.316406 145.832031 221.648438 145.000000 M 211.398438 150.750000 L 199.050781 154.851562 L 215.449219 157.300781 L 228.500000 155.351562 C 229.699219 155.582031 231.367188 155.800781 233.500000 156.000000 C 235.667969 156.234375 238.101562 156.433594 240.800781 156.601562 C 243.500000 156.800781 246.300781 156.964844 249.199219 157.101562 C 252.101562 157.234375 254.882812 157.316406 257.550781 157.351562 C 260.250000 157.417969 262.648438 157.417969 264.750000 157.351562 C 268.214844 157.250000 271.699219 157.066406 275.199219 156.800781 C 278.667969 156.535156 281.800781 156.167969 284.601562 155.699219 C 287.433594 155.234375 289.601562 154.617188 291.101562 153.851562 C 292.601562 153.082031 293.117188 152.148438 292.648438 151.050781 C 292.214844 149.917969 290.449219 148.601562 287.351562 147.101562 C 293.183594 148.234375 297.082031 149.500000 299.050781 150.898438 C 301.015625 152.300781 301.035156 153.683594 299.101562 155.050781 C 297.199219 156.417969 293.316406 157.566406 287.449219 158.500000 L 300.148438 162.250000 L 308.351562 160.398438 L 301.851562 157.550781 C 305.015625 157.082031 307.601562 156.535156 309.601562 155.898438 L 322.199219 156.800781 L 324.750000 155.250000 L 313.750000 153.500000 C 314.050781 152.964844 313.984375 152.417969 313.550781 151.851562 L 322.851562 151.449219 L 319.550781 150.000000 L 309.898438 149.398438 C 308.464844 148.765625 306.714844 148.132812 304.648438 147.500000 L 308.398438 146.601562 L 303.398438 145.398438 L 295.800781 145.148438 C 292.832031 144.484375 289.550781 143.816406 285.949219 143.148438 L 286.148438 142.000000 L 277.648438 140.550781 L 274.648438 141.300781 C 272.050781 140.898438 269.351562 140.535156 266.550781 140.199219 C 265.550781 140.101562 264.617188 139.984375 263.750000 139.851562 L 259.601562 138.050781 L 248.699219 136.851562 L 247.351562 138.300781 C 247.015625 138.265625 246.699219 138.250000 246.398438 138.250000 C 243.199219 138.015625 240.101562 137.851562 237.101562 137.750000 L 227.500000 134.898438 L 217.300781 134.949219 L 221.601562 137.800781 C 219.101562 137.898438 216.816406 138.082031 214.750000 138.351562 L 202.050781 136.199219 L 193.601562 137.699219 L 204.500000 141.000000 C 203.734375 141.398438 203.132812 141.867188 202.699219 142.398438 C 202.566406 142.535156 202.464844 142.683594 202.398438 142.851562 L 187.300781 143.449219 L 187.000000 146.699219 L 205.000000 147.550781 C 206.500000 148.617188 208.632812 149.683594 211.398438 150.750000 M 152.351562 143.750000 C 152.082031 145.484375 153.050781 147.167969 155.250000 148.800781 C 157.484375 150.433594 160.750000 151.964844 165.050781 153.398438 C 169.351562 154.832031 174.484375 156.101562 180.449219 157.199219 C 186.449219 158.332031 193.101562 159.265625 200.398438 160.000000 C 207.667969 160.734375 215.398438 161.199219 223.601562 161.398438 C 231.332031 161.535156 238.765625 161.484375 245.898438 161.250000 C 253.035156 160.984375 259.699219 160.582031 265.898438 160.050781 C 272.066406 159.484375 277.582031 158.800781 282.449219 158.000000 C 287.316406 157.199219 291.351562 156.316406 294.550781 155.351562 C 291.382812 156.183594 287.484375 156.917969 282.851562 157.550781 C 278.214844 158.183594 273.000000 158.699219 267.199219 159.101562 C 261.433594 159.500000 255.250000 159.734375 248.648438 159.800781 C 242.015625 159.898438 235.132812 159.816406 228.000000 159.550781 C 218.332031 159.082031 209.417969 158.265625 201.250000 157.101562 C 193.050781 155.933594 185.933594 154.515625 179.898438 152.851562 C 173.867188 151.214844 169.285156 149.433594 166.148438 147.500000 C 163.015625 145.601562 161.683594 143.667969 162.148438 141.699219 C 162.515625 140.433594 163.667969 139.300781 165.601562 138.300781 C 167.535156 137.300781 170.117188 136.449219 173.351562 135.750000 C 176.617188 135.050781 180.433594 134.500000 184.800781 134.101562 C 178.464844 134.500000 172.933594 135.132812 168.199219 136.000000 C 163.464844 136.898438 159.714844 138.000000 156.949219 139.300781 C 154.214844 140.601562 152.683594 142.082031 152.351562 143.750000 M 159.101562 156.250000 C 164.566406 158.183594 171.000000 159.750000 178.398438 160.949219 C 185.800781 162.183594 193.832031 163.066406 202.500000 163.601562 C 211.167969 164.132812 220.132812 164.351562 229.398438 164.250000 C 238.632812 164.183594 247.832031 163.800781 257.000000 163.101562 C 266.132812 162.433594 274.882812 161.484375 283.250000 160.250000 C 279.816406 161.117188 275.300781 161.984375 269.699219 162.851562 C 264.101562 163.714844 257.785156 164.515625 250.750000 165.250000 C 243.683594 165.949219 236.250000 166.515625 228.449219 166.949219 C 220.648438 167.351562 212.851562 167.515625 205.050781 167.449219 C 197.250000 167.417969 189.800781 167.066406 182.699219 166.398438 C 175.601562 165.734375 169.199219 164.683594 163.500000 163.250000 L 159.101562 156.250000 "/>
    <path style=" stroke:none;fill-rule:evenodd;fill:rgb(0%,34.901961%,60.392157%);fill-opacity:1;" d="M 236.250000 97.949219 C 236.949219 96.515625 238.265625 95.484375 240.199219 94.851562 C 242.101562 94.214844 244.449219 93.984375 247.250000 94.148438 C 250.050781 94.316406 253.117188 94.867188 256.449219 95.800781 C 259.816406 96.734375 263.285156 98.050781 266.851562 99.750000 C 271.617188 102.050781 275.699219 104.601562 279.101562 107.398438 C 282.535156 110.167969 285.015625 112.882812 286.550781 115.550781 C 288.117188 118.183594 288.464844 120.500000 287.601562 122.500000 C 286.898438 123.933594 285.582031 124.964844 283.648438 125.601562 C 281.750000 126.199219 279.398438 126.417969 276.601562 126.250000 C 273.800781 126.082031 270.734375 125.535156 267.398438 124.601562 C 264.066406 123.667969 260.601562 122.351562 257.000000 120.648438 C 252.234375 118.351562 248.148438 115.800781 244.750000 113.000000 C 241.316406 110.234375 238.832031 107.535156 237.300781 104.898438 C 235.765625 102.234375 235.417969 99.917969 236.250000 97.949219 M 223.000000 109.851562 L 208.851562 116.750000 L 222.851562 126.000000 L 236.351562 124.250000 C 237.617188 125.285156 239.535156 126.464844 242.101562 127.800781 C 244.667969 129.132812 247.566406 130.484375 250.800781 131.851562 C 254.035156 133.183594 257.265625 134.367188 260.500000 135.398438 C 263.734375 136.433594 266.617188 137.167969 269.148438 137.601562 C 272.484375 138.132812 275.867188 138.449219 279.300781 138.550781 C 282.734375 138.617188 285.933594 138.300781 288.898438 137.601562 C 291.867188 136.867188 294.300781 135.601562 296.199219 133.800781 C 298.101562 131.964844 299.199219 129.433594 299.500000 126.199219 C 299.800781 122.933594 298.984375 118.800781 297.050781 113.800781 C 300.617188 116.964844 303.117188 120.250000 304.550781 123.648438 C 305.949219 127.015625 306.316406 130.234375 305.648438 133.300781 C 304.984375 136.398438 303.300781 139.101562 300.601562 141.398438 C 297.933594 143.667969 294.300781 145.316406 289.699219 146.351562 L 299.199219 160.500000 L 308.101562 157.351562 L 303.898438 147.101562 C 307.167969 146.464844 309.949219 145.433594 312.250000 144.000000 L 323.449219 149.851562 L 326.898438 145.500000 L 317.750000 137.601562 C 318.382812 136.000000 318.683594 134.316406 318.648438 132.550781 L 327.699219 133.148438 L 325.550781 127.949219 L 316.851562 124.300781 C 315.949219 122.132812 314.714844 119.933594 313.148438 117.699219 L 317.300781 115.601562 L 313.351562 111.300781 L 306.300781 109.550781 C 303.933594 107.117188 301.265625 104.765625 298.300781 102.500000 L 299.199219 99.101562 L 292.101562 94.199219 L 288.750000 95.898438 C 286.515625 94.500000 284.199219 93.199219 281.800781 92.000000 C 280.933594 91.535156 280.117188 91.101562 279.351562 90.699219 L 276.550781 85.398438 L 267.000000 81.148438 L 264.750000 84.800781 C 264.449219 84.699219 264.167969 84.601562 263.898438 84.500000 C 261.000000 83.601562 258.148438 82.851562 255.351562 82.250000 L 248.000000 74.250000 L 238.300781 73.300781 L 240.648438 80.601562 C 238.183594 80.601562 235.882812 80.785156 233.750000 81.148438 L 223.050781 74.601562 L 214.148438 77.050781 L 222.449219 86.000000 C 221.449219 86.832031 220.601562 87.832031 219.898438 89.000000 C 219.699219 89.265625 219.515625 89.582031 219.351562 89.949219 L 204.699219 89.000000 L 202.398438 96.199219 L 218.898438 101.250000 C 219.699219 103.949219 221.066406 106.816406 223.000000 109.851562 M 171.449219 84.000000 C 169.882812 88.398438 170.148438 93.066406 172.250000 98.000000 C 174.351562 102.933594 177.984375 107.851562 183.148438 112.750000 C 188.316406 117.648438 194.714844 122.250000 202.351562 126.550781 C 209.949219 130.851562 218.484375 134.566406 227.949219 137.699219 C 235.148438 140.035156 242.167969 141.785156 249.000000 142.949219 C 255.867188 144.148438 262.382812 144.785156 268.550781 144.851562 C 274.683594 144.882812 280.300781 144.417969 285.398438 143.449219 C 290.464844 142.449219 294.816406 140.933594 298.449219 138.898438 C 294.917969 140.535156 290.765625 141.667969 286.000000 142.300781 C 281.265625 142.964844 276.050781 143.117188 270.351562 142.750000 C 264.683594 142.382812 258.714844 141.500000 252.449219 140.101562 C 246.183594 138.699219 239.785156 136.765625 233.250000 134.300781 C 224.449219 130.933594 216.550781 127.050781 209.550781 122.648438 C 202.550781 118.285156 196.699219 113.683594 192.000000 108.851562 C 187.332031 103.984375 184.082031 99.183594 182.250000 94.449219 C 180.449219 89.714844 180.351562 85.332031 181.949219 81.300781 C 183.050781 78.699219 184.800781 76.464844 187.199219 74.601562 C 189.632812 72.734375 192.601562 71.234375 196.101562 70.101562 C 199.632812 69.000000 203.582031 68.265625 207.949219 67.898438 C 201.714844 68.035156 196.082031 68.714844 191.050781 69.949219 C 186.050781 71.214844 181.867188 73.035156 178.500000 75.398438 C 175.101562 77.765625 172.750000 80.632812 171.449219 84.000000 M 170.449219 111.148438 C 174.449219 116.582031 179.550781 121.550781 185.750000 126.050781 C 191.984375 130.550781 199.000000 134.500000 206.800781 137.898438 C 214.632812 141.300781 222.917969 144.066406 231.648438 146.199219 C 240.382812 148.332031 249.250000 149.750000 258.250000 150.449219 C 267.250000 151.148438 276.050781 151.050781 284.648438 150.148438 C 281.449219 151.351562 277.464844 152.285156 272.699219 152.949219 C 267.964844 153.617188 262.714844 153.984375 256.949219 154.050781 C 251.148438 154.117188 245.066406 153.851562 238.699219 153.250000 C 232.332031 152.648438 225.933594 151.667969 219.500000 150.300781 C 213.066406 148.964844 206.816406 147.214844 200.750000 145.050781 C 194.714844 142.882812 189.101562 140.285156 183.898438 137.250000 C 178.734375 134.214844 174.250000 130.699219 170.449219 126.699219 L 170.449219 111.148438 "/>
  </g>
  <g id="surface4">
    <text style="fill:rgb(65,64,66)" font-family="Helvetica" font-size="50" id="0" transform="matrix(1,0,0,1,126.85,171.25) translate(2.8899999999999997,49.44)" xml:space="preserve"><![CDATA[Intelliworx]]></text>
  </g>
</svg>